<svg width="799" height="1070" viewBox="0 0 799 1070" class="keymap" xmlns="http://www.w3.org/2000/svg" xmlns:xlink="http://www.w3.org/1999/xlink">
<style>/* inherit to force styles through use tags */
svg path {
    fill: inherit;
}

/* font and background color specifications */
svg.keymap {
    font-family: SFMono-Regular,Consolas,Liberation Mono,Menlo,monospace;
    font-size: 14px;
    font-kerning: normal;
    text-rendering: optimizeLegibility;
    fill: #24292e;
}

/* default key styling */
rect.key {
    fill: #f6f8fa;
}

rect.key, rect.combo {
    stroke: #c9cccf;
    stroke-width: 1;
}

/* default key side styling, only used is draw_key_sides is set */
rect.side {
    filter: brightness(90%);
}

/* color accent for combo boxes */
rect.combo, rect.combo-separate {
    fill: #cdf;
}

/* color accent for held keys */
rect.held, rect.combo.held {
    fill: #fdd;
}

/* color accent for ghost (optional) keys */
rect.ghost, rect.combo.ghost {
    stroke-dasharray: 4, 4;
    stroke-width: 2;
}

text {
    text-anchor: middle;
    dominant-baseline: middle;
}

/* styling for layer labels */
text.label {
    font-weight: bold;
    text-anchor: start;
    stroke: white;
    stroke-width: 4;
    paint-order: stroke;
}

/* styling for optional footer */
text.footer {
    text-anchor: end;
    dominant-baseline: auto;
    stroke: white;
    stroke-width: 4;
    paint-order: stroke;
}

/* styling for combo tap, and key non-tap label text */
text.combo, text.hold, text.shifted, text.left, text.right {
    font-size: 11px;
}

text.hold {
    text-anchor: middle;
    dominant-baseline: auto;
}

text.shifted {
    text-anchor: middle;
    dominant-baseline: hanging;
}

text.left {
    text-anchor: start;
}

text.right {
    text-anchor: end;
}

text.layer-activator {
    text-decoration: underline;
}

/* styling for hold/shifted label text in combo box */
text.combo.hold, text.combo.shifted, text.combo.left, text.combo.right {
    font-size: 8px;
}

/* lighter symbol for transparent keys */
text.trans {
    fill: #7b7e81;
}

/* styling for combo dendrons */
path.combo {
    stroke-width: 1;
    stroke: gray;
    fill: none;
}

/* Start Tabler Icons Cleanup */
/* cannot use height/width with glyphs */
.icon-tabler > path {
    fill: inherit;
    stroke: inherit;
    stroke-width: 2;
}
/* hide tabler's default box */
.icon-tabler > path[stroke="none"][fill="none"] {
    visibility: hidden;
}
/* End Tabler Icons Cleanup */

svg.keymap { fill: #d1d6db; }
rect.key { fill: #3f4750; }
rect.key, rect.combo { stroke: #60666c; }
rect.combo, rect.combo-separate { fill: #1f3d7a; }
rect.held, rect.combo.held { fill: #854747; }
text.label, text.footer { stroke: black; }
text.trans { fill: #7e8184; }
path.combo { stroke: #7f7f7f; }
</style>
<g transform="translate(30, 0)" class="layer-BASE">
<text x="0" y="28" class="label" id="BASE">BASE:</text>
<g transform="translate(0, 56)">
<g transform="translate(33, 93) rotate(-8.0)" class="key keypos-0">
<rect rx="6" ry="6" x="-28" y="-26" width="55" height="52" class="key"/>
<text x="0" y="0" class="key tap">W</text>
</g>
<g transform="translate(98, 46) rotate(-3.0)" class="key keypos-1">
<rect rx="6" ry="6" x="-28" y="-26" width="55" height="52" class="key"/>
<text x="0" y="0" class="key tap">F</text>
</g>
<g transform="translate(164, 28)" class="key keypos-2">
<rect rx="6" ry="6" x="-28" y="-26" width="55" height="52" class="key"/>
<text x="0" y="0" class="key tap">M</text>
</g>
<g transform="translate(225, 42)" class="key keypos-3">
<rect rx="6" ry="6" x="-28" y="-26" width="55" height="52" class="key"/>
<text x="0" y="0" class="key tap">P</text>
</g>
<g transform="translate(286, 71)" class="key keypos-4">
<rect rx="6" ry="6" x="-28" y="-26" width="55" height="52" class="key"/>
<text x="0" y="0" class="key tap">B</text>
</g>
<g transform="translate(452, 71)" class="key keypos-5">
<rect rx="6" ry="6" x="-28" y="-26" width="55" height="52" class="key"/>
<text x="0" y="0" class="key tap">,</text>
</g>
<g transform="translate(513, 42)" class="key keypos-6">
<rect rx="6" ry="6" x="-28" y="-26" width="55" height="52" class="key"/>
<text x="0" y="0" class="key tap">X</text>
</g>
<g transform="translate(574, 28)" class="key keypos-7">
<rect rx="6" ry="6" x="-28" y="-26" width="55" height="52" class="key"/>
<text x="0" y="0" class="key tap">&quot;</text>
</g>
<g transform="translate(640, 46) rotate(3.0)" class="key keypos-8">
<rect rx="6" ry="6" x="-28" y="-26" width="55" height="52" class="key"/>
<text x="0" y="0" class="key tap">J</text>
</g>
<g transform="translate(705, 93) rotate(8.0)" class="key keypos-9">
<rect rx="6" ry="6" x="-28" y="-26" width="55" height="52" class="key"/>
<text x="0" y="0" class="key tap">K</text>
</g>
<g transform="translate(41, 150) rotate(-8.0)" class="key keypos-10">
<rect rx="6" ry="6" x="-28" y="-26" width="55" height="52" class="key"/>
<text x="0" y="0" class="key tap">R</text>
</g>
<g transform="translate(101, 103) rotate(-3.0)" class="key keypos-11">
<rect rx="6" ry="6" x="-28" y="-26" width="55" height="52" class="key"/>
<text x="0" y="0" class="key tap">S</text>
</g>
<g transform="translate(164, 86)" class="key keypos-12">
<rect rx="6" ry="6" x="-28" y="-26" width="55" height="52" class="key"/>
<text x="0" y="0" class="key tap">N</text>
</g>
<g transform="translate(225, 100)" class="key keypos-13">
<rect rx="6" ry="6" x="-28" y="-26" width="55" height="52" class="key"/>
<text x="0" y="0" class="key tap">T</text>
</g>
<g transform="translate(286, 129)" class="key keypos-14">
<rect rx="6" ry="6" x="-28" y="-26" width="55" height="52" class="key"/>
<text x="0" y="0" class="key tap">G</text>
</g>
<g transform="translate(452, 129)" class="key keypos-15">
<rect rx="6" ry="6" x="-28" y="-26" width="55" height="52" class="key"/>
<text x="0" y="0" class="key tap">.</text>
</g>
<g transform="translate(513, 100)" class="key keypos-16">
<rect rx="6" ry="6" x="-28" y="-26" width="55" height="52" class="key"/>
<text x="0" y="0" class="key tap">A</text>
</g>
<g transform="translate(574, 86)" class="key keypos-17">
<rect rx="6" ry="6" x="-28" y="-26" width="55" height="52" class="key"/>
<text x="0" y="0" class="key tap">E</text>
</g>
<g transform="translate(637, 103) rotate(3.0)" class="key keypos-18">
<rect rx="6" ry="6" x="-28" y="-26" width="55" height="52" class="key"/>
<text x="0" y="0" class="key tap">I</text>
</g>
<g transform="translate(697, 150) rotate(8.0)" class="key keypos-19">
<rect rx="6" ry="6" x="-28" y="-26" width="55" height="52" class="key"/>
<text x="0" y="0" class="key tap">H</text>
</g>
<g transform="translate(104, 161) rotate(-3.0)" class="key keypos-20">
<rect rx="6" ry="6" x="-28" y="-26" width="55" height="52" class="key"/>
<text x="0" y="0" class="key tap">C</text>
</g>
<g transform="translate(164, 143)" class="key keypos-21">
<rect rx="6" ry="6" x="-28" y="-26" width="55" height="52" class="key"/>
<text x="0" y="0" class="key tap">L</text>
</g>
<g transform="translate(225, 158)" class="key keypos-22">
<rect rx="6" ry="6" x="-28" y="-26" width="55" height="52" class="key"/>
<text x="0" y="0" class="key tap">D</text>
</g>
<g transform="translate(513, 158)" class="key keypos-23">
<rect rx="6" ry="6" x="-28" y="-26" width="55" height="52" class="key"/>
<text x="0" y="0" class="key tap">U</text>
</g>
<g transform="translate(574, 143)" class="key keypos-24">
<rect rx="6" ry="6" x="-28" y="-26" width="55" height="52" class="key"/>
<text x="0" y="0" class="key tap">O</text>
</g>
<g transform="translate(634, 161) rotate(3.0)" class="key keypos-25">
<rect rx="6" ry="6" x="-28" y="-26" width="55" height="52" class="key"/>
<text x="0" y="0" class="key tap">Y</text>
</g>
<g transform="translate(241, 230)" class="key keypos-26">
<rect rx="6" ry="6" x="-28" y="-26" width="55" height="52" class="key"/>
<text x="0" y="0" class="key tap">Nav</text>
</g>
<g transform="translate(302, 245)" class="key keypos-27">
<rect rx="6" ry="6" x="-28" y="-26" width="55" height="52" class="key"/>
<text x="0" y="0" class="key tap">SPACE</text>
</g>
<g transform="translate(437, 245)" class="key keypos-28">
<rect rx="6" ry="6" x="-28" y="-26" width="55" height="52" class="key"/>
<text x="0" y="0" class="key tap">SHIFT</text>
<text x="0" y="24" class="key hold">Sticky</text>
</g>
<g transform="translate(498, 230)" class="key keypos-29">
<rect rx="6" ry="6" x="-28" y="-26" width="55" height="52" class="key"/>
<text x="0" y="0" class="key tap">Sym</text>
</g>
<g class="combo combopos-0">
<rect rx="6" ry="6" x="181" y="138" width="28" height="26" class="combo"/>
<text x="195" y="150" class="combo tap">Q</text>
</g>
<g class="combo combopos-1">
<rect rx="6" ry="6" x="117" y="24" width="28" height="26" class="combo"/>
<text x="131" y="37" class="combo tap">Z</text>
</g>
<g class="combo combopos-2">
<rect rx="6" ry="6" x="120" y="139" width="28" height="26" class="combo"/>
<text x="134" y="152" class="combo tap">V</text>
</g>
<g class="combo combopos-3">
<rect rx="6" ry="6" x="86" y="62" width="28" height="26" class="combo"/>
<text x="100" y="75" class="combo tap">[</text>
</g>
<g class="combo combopos-4">
<rect rx="6" ry="6" x="625" y="62" width="28" height="26" class="combo"/>
<text x="639" y="75" class="combo tap">]</text>
</g>
<g class="combo combopos-5">
<rect rx="6" ry="6" x="150" y="44" width="28" height="26" class="combo"/>
<text x="164" y="57" class="combo tap">(</text>
</g>
<g class="combo combopos-6">
<rect rx="6" ry="6" x="560" y="44" width="28" height="26" class="combo"/>
<text x="574" y="57" class="combo tap">)</text>
</g>
<g class="combo combopos-7">
<rect rx="6" ry="6" x="211" y="58" width="28" height="26" class="combo"/>
<text x="225" y="71" class="combo tap">{</text>
</g>
<g class="combo combopos-8">
<rect rx="6" ry="6" x="499" y="58" width="28" height="26" class="combo"/>
<text x="513" y="71" class="combo tap">}</text>
</g>
<g class="combo combopos-9">
<path d="M369,245 l-48,0" class="combo"/>
<path d="M369,245 l48,0" class="combo"/>
<rect rx="6" ry="6" x="355" y="232" width="28" height="26" class="combo"/>
<text x="369" y="245" class="combo tap">Caps</text>
</g>
<g class="combo combopos-10">
<g transform="rotate(45.0, 255.80454809528212, 56.812)">
<rect rx="6" ry="6" x="242" y="44" width="28" height="26" class="combo"/>
<text x="256" y="57" class="combo tap">Redo</text>
</g>
</g>
<g class="combo combopos-11">
<g transform="rotate(45.0, 255.80454809528212, 114.464)">
<rect rx="6" ry="6" x="242" y="101" width="28" height="26" class="combo"/>
<text x="256" y="114" class="combo tap">Undo</text>
</g>
</g>
<g class="combo combopos-12">
<rect rx="6" ry="6" x="219" y="181" width="28" height="26" class="combo"/>
<text x="233" y="194" class="combo tap">ESC</text>
</g>
</g>
</g>
<g transform="translate(30, 329)" class="layer-NAV">
<text x="0" y="28" class="label" id="NAV">NAV:</text>
<g transform="translate(0, 84)">
<g transform="translate(33, 93) rotate(-8.0)" class="key keypos-0">
<rect rx="6" ry="6" x="-28" y="-26" width="55" height="52" class="key"/>
<text x="0" y="0" class="key tap">
<tspan x="0" dy="-0.6em">Scrn</tspan><tspan x="0" dy="1.2em">Sht</tspan>
</text>
</g>
<g transform="translate(98, 46) rotate(-3.0)" class="key keypos-1">
<rect rx="6" ry="6" x="-28" y="-26" width="55" height="52" class="key"/>
<text x="0" y="0" class="key tap">ENTER</text>
</g>
<g transform="translate(164, 28)" class="key keypos-2">
<rect rx="6" ry="6" x="-28" y="-26" width="55" height="52" class="key"/>
<text x="0" y="0" class="key tap">
<tspan x="0" dy="-0.6em">BCK</tspan><tspan x="0" dy="1.2em">SPCE</tspan>
</text>
</g>
<g transform="translate(225, 42)" class="key keypos-3">
<rect rx="6" ry="6" x="-28" y="-26" width="55" height="52" class="key"/>
<text x="0" y="0" class="key tap">TAB</text>
</g>
<g transform="translate(286, 71)" class="key keypos-4">
<rect rx="6" ry="6" x="-28" y="-26" width="55" height="52" class="key"/>
<text x="0" y="0" class="key tap">DELETE</text>
</g>
<g transform="translate(452, 71)" class="key keypos-5">
<rect rx="6" ry="6" x="-28" y="-26" width="55" height="52" class="key"/>
<text x="0" y="0" class="key tap">
<tspan x="0" dy="-0.6em">Delete</tspan><tspan x="0" dy="1.2em">Word</tspan>
</text>
</g>
<g transform="translate(513, 42)" class="key keypos-6">
<rect rx="6" ry="6" x="-28" y="-26" width="55" height="52" class="key"/>
<text x="0" y="0" class="key tap">Rename</text>
</g>
<g transform="translate(574, 28)" class="key keypos-7">
<rect rx="6" ry="6" x="-28" y="-26" width="55" height="52" class="key"/>
<text x="0" y="0" class="key tap">UP</text>
</g>
<g transform="translate(640, 46) rotate(3.0)" class="key keypos-8">
<rect rx="6" ry="6" x="-28" y="-26" width="55" height="52" class="key"/>
<text x="0" y="0" class="key tap">Quit</text>
</g>
<g transform="translate(705, 93) rotate(8.0)" class="key keypos-9">
<rect rx="6" ry="6" x="-28" y="-26" width="55" height="52" class="key"/>
<text x="0" y="0" class="key tap">WRK1</text>
</g>
<g transform="translate(41, 150) rotate(-8.0)" class="key keypos-10">
<rect rx="6" ry="6" x="-28" y="-26" width="55" height="52" class="key"/>
<text x="0" y="0" class="key tap">LCTRL</text>
<text x="0" y="24" class="key hold">Sticky</text>
</g>
<g transform="translate(101, 103) rotate(-3.0)" class="key keypos-11">
<rect rx="6" ry="6" x="-28" y="-26" width="55" height="52" class="key"/>
<text x="0" y="0" class="key tap">LALT</text>
<text x="0" y="24" class="key hold">Sticky</text>
</g>
<g transform="translate(164, 86)" class="key keypos-12">
<rect rx="6" ry="6" x="-28" y="-26" width="55" height="52" class="key"/>
<text x="0" y="0" class="key tap">LGUI</text>
<text x="0" y="24" class="key hold">Sticky</text>
</g>
<g transform="translate(225, 100)" class="key keypos-13">
<rect rx="6" ry="6" x="-28" y="-26" width="55" height="52" class="key"/>
<text x="0" y="0" class="key tap">LSHIFT</text>
<text x="0" y="24" class="key hold">Sticky</text>
</g>
<g transform="translate(286, 129)" class="key keypos-14">
<rect rx="6" ry="6" x="-28" y="-26" width="55" height="52" class="key"/>
<text x="0" y="0" class="key tap">
<tspan x="0" dy="-0.6em">Select</tspan><tspan x="0" dy="1.2em">All</tspan>
</text>
</g>
<g transform="translate(452, 129)" class="key keypos-15">
<rect rx="6" ry="6" x="-28" y="-26" width="55" height="52" class="key"/>
<text x="0" y="0" class="key tap">
<tspan x="0" dy="-0.6em">Select</tspan><tspan x="0" dy="1.2em">All</tspan>
</text>
</g>
<g transform="translate(513, 100)" class="key keypos-16">
<rect rx="6" ry="6" x="-28" y="-26" width="55" height="52" class="key"/>
<text x="0" y="0" class="key tap">LEFT</text>
</g>
<g transform="translate(574, 86)" class="key keypos-17">
<rect rx="6" ry="6" x="-28" y="-26" width="55" height="52" class="key"/>
<text x="0" y="0" class="key tap">DOWN</text>
</g>
<g transform="translate(637, 103) rotate(3.0)" class="key keypos-18">
<rect rx="6" ry="6" x="-28" y="-26" width="55" height="52" class="key"/>
<text x="0" y="0" class="key tap">RIGHT</text>
</g>
<g transform="translate(697, 150) rotate(8.0)" class="key keypos-19">
<rect rx="6" ry="6" x="-28" y="-26" width="55" height="52" class="key"/>
<text x="0" y="0" class="key tap">WRK2</text>
</g>
<g transform="translate(104, 161) rotate(-3.0)" class="key keypos-20">
<rect rx="6" ry="6" x="-28" y="-26" width="55" height="52" class="key"/>
<text x="0" y="0" class="key tap">CUT</text>
</g>
<g transform="translate(164, 143)" class="key keypos-21">
<rect rx="6" ry="6" x="-28" y="-26" width="55" height="52" class="key"/>
<text x="0" y="0" class="key tap">COPY</text>
</g>
<g transform="translate(225, 158)" class="key keypos-22">
<rect rx="6" ry="6" x="-28" y="-26" width="55" height="52" class="key"/>
<text x="0" y="0" class="key tap">PASTE</text>
</g>
<g transform="translate(513, 158)" class="key keypos-23">
<rect rx="6" ry="6" x="-28" y="-26" width="55" height="52" class="key"/>
<text x="0" y="0" class="key tap">ENTER</text>
</g>
<g transform="translate(574, 143)" class="key keypos-24">
<rect rx="6" ry="6" x="-28" y="-26" width="55" height="52" class="key"/>
<text x="0" y="0" class="key tap">
<tspan x="0" dy="-0.6em">BCK</tspan><tspan x="0" dy="1.2em">SPCE</tspan>
</text>
</g>
<g transform="translate(634, 161) rotate(3.0)" class="key keypos-25">
<rect rx="6" ry="6" x="-28" y="-26" width="55" height="52" class="key"/>
<text x="0" y="0" class="key tap">TAB</text>
</g>
<g transform="translate(241, 230)" class="key keypos-26">
<rect rx="6" ry="6" x="-28" y="-26" width="55" height="52" class="key"/>
<text x="0" y="0" class="key tap">Nav</text>
</g>
<g transform="translate(302, 245)" class="key keypos-27">
<rect rx="6" ry="6" x="-28" y="-26" width="55" height="52" class="key"/>
<text x="0" y="0" class="key tap">SPACE</text>
</g>
<g transform="translate(437, 245)" class="key keypos-28">
<rect rx="6" ry="6" x="-28" y="-26" width="55" height="52" class="key"/>
<text x="0" y="0" class="key tap">SHIFT</text>
</g>
<g transform="translate(498, 230)" class="key keypos-29">
<rect rx="6" ry="6" x="-28" y="-26" width="55" height="52" class="key"/>
<text x="0" y="0" class="key tap">Sym</text>
</g>
<g class="combo combopos-0">
<path d="M576,-15 h-57 a6.0,6.0 0 0 0 -6.0,6.0 v33" class="combo"/>
<path d="M576,-15 l-1,24" class="combo"/>
<path d="M576,-15 h58 a6.0,6.0 0 0 1 6.0,6.0 v36" class="combo"/>
<rect rx="6" ry="6" x="553" y="-28" width="45" height="26" class="combo"/>
<text x="576" y="-15" class="combo tap">
<tspan x="576" dy="-0.6em">Lock</tspan><tspan x="576" dy="1.2em">Screen</tspan>
</text>
</g>
<g class="combo combopos-1">
<path d="M160,-15 h-121 a6.0,6.0 0 0 0 -6.0,6.0 v84" class="combo"/>
<path d="M160,-15 h121 a6.0,6.0 0 0 1 6.0,6.0 v119" class="combo"/>
<rect rx="6" ry="6" x="127" y="-28" width="65" height="26" class="combo"/>
<text x="160" y="-15" class="combo tap">
<tspan x="160" dy="-0.6em" style="font-size: 78%">Bluetooth</tspan><tspan x="160" dy="1.2em" style="font-size: 78%">Clear</tspan>
</text>
</g>
<g class="combo combopos-2">
<g transform="rotate(-45.0, 65.76843103475792, 69.49478427997396)">
<rect rx="6" ry="6" x="52" y="56" width="28" height="26" class="combo"/>
<text x="66" y="69" class="combo tap">
<tspan x="66" dy="-0.6em">BT</tspan><tspan x="66" dy="1.2em">0</tspan>
</text>
</g>
</g>
<g class="combo combopos-3">
<rect rx="6" ry="6" x="117" y="24" width="28" height="26" class="combo"/>
<text x="131" y="37" class="combo tap">
<tspan x="131" dy="-0.6em">BT</tspan><tspan x="131" dy="1.2em">1</tspan>
</text>
</g>
<g class="combo combopos-4">
<rect rx="6" ry="6" x="181" y="22" width="28" height="26" class="combo"/>
<text x="195" y="35" class="combo tap">
<tspan x="195" dy="-0.6em">BT</tspan><tspan x="195" dy="1.2em">2</tspan>
</text>
</g>
<g class="combo combopos-5">
<g transform="rotate(45.0, 255.80454809528212, 56.812)">
<rect rx="6" ry="6" x="242" y="44" width="28" height="26" class="combo"/>
<text x="256" y="57" class="combo tap">
<tspan x="256" dy="-0.6em">BT</tspan><tspan x="256" dy="1.2em">3</tspan>
</text>
</g>
</g>
</g>
</g>
<g transform="translate(30, 685)" class="layer-SYM">
<text x="0" y="28" class="label" id="SYM">SYM:</text>
<g transform="translate(0, 56)">
<g transform="translate(33, 93) rotate(-8.0)" class="key keypos-0">
<rect rx="6" ry="6" x="-28" y="-26" width="55" height="52" class="key"/>
<text x="0" y="0" class="key tap">~</text>
</g>
<g transform="translate(98, 46) rotate(-3.0)" class="key keypos-1">
<rect rx="6" ry="6" x="-28" y="-26" width="55" height="52" class="key"/>
<text x="0" y="0" class="key tap">9</text>
</g>
<g transform="translate(164, 28)" class="key keypos-2">
<rect rx="6" ry="6" x="-28" y="-26" width="55" height="52" class="key"/>
<text x="0" y="0" class="key tap">8</text>
</g>
<g transform="translate(225, 42)" class="key keypos-3">
<rect rx="6" ry="6" x="-28" y="-26" width="55" height="52" class="key"/>
<text x="0" y="0" class="key tap">7</text>
</g>
<g transform="translate(286, 71)" class="key keypos-4">
<rect rx="6" ry="6" x="-28" y="-26" width="55" height="52" class="key"/>
<text x="0" y="0" class="key tap">=</text>
</g>
<g transform="translate(452, 71)" class="key keypos-5">
<rect rx="6" ry="6" x="-28" y="-26" width="55" height="52" class="key"/>
<text x="0" y="0" class="key tap">,</text>
</g>
<g transform="translate(513, 42)" class="key keypos-6">
<rect rx="6" ry="6" x="-28" y="-26" width="55" height="52" class="key"/>
<text x="0" y="0" class="key tap">;</text>
</g>
<g transform="translate(574, 28)" class="key keypos-7">
<rect rx="6" ry="6" x="-28" y="-26" width="55" height="52" class="key"/>
<text x="0" y="0" class="key tap">&#x27;</text>
</g>
<g transform="translate(640, 46) rotate(3.0)" class="key keypos-8">
<rect rx="6" ry="6" x="-28" y="-26" width="55" height="52" class="key"/>
<text x="0" y="0" class="key tap">\</text>
</g>
<g transform="translate(705, 93) rotate(8.0)" class="key keypos-9">
<rect rx="6" ry="6" x="-28" y="-26" width="55" height="52" class="key"/>
<text x="0" y="0" class="key tap">`</text>
</g>
<g transform="translate(41, 150) rotate(-8.0)" class="key keypos-10">
<rect rx="6" ry="6" x="-28" y="-26" width="55" height="52" class="key"/>
<text x="0" y="0" class="key tap">3</text>
</g>
<g transform="translate(101, 103) rotate(-3.0)" class="key keypos-11">
<rect rx="6" ry="6" x="-28" y="-26" width="55" height="52" class="key"/>
<text x="0" y="0" class="key tap">2</text>
</g>
<g transform="translate(164, 86)" class="key keypos-12">
<rect rx="6" ry="6" x="-28" y="-26" width="55" height="52" class="key"/>
<text x="0" y="0" class="key tap">1</text>
</g>
<g transform="translate(225, 100)" class="key keypos-13">
<rect rx="6" ry="6" x="-28" y="-26" width="55" height="52" class="key"/>
<text x="0" y="0" class="key tap">0</text>
</g>
<g transform="translate(286, 129)" class="key keypos-14">
<rect rx="6" ry="6" x="-28" y="-26" width="55" height="52" class="key"/>
<text x="0" y="0" class="key tap">-</text>
</g>
<g transform="translate(452, 129)" class="key keypos-15">
<rect rx="6" ry="6" x="-28" y="-26" width="55" height="52" class="key"/>
<text x="0" y="0" class="key tap">.</text>
</g>
<g transform="translate(513, 100)" class="key keypos-16">
<rect rx="6" ry="6" x="-28" y="-26" width="55" height="52" class="key"/>
<text x="0" y="0" class="key tap">LSHIFT</text>
<text x="0" y="24" class="key hold">Sticky</text>
</g>
<g transform="translate(574, 86)" class="key keypos-17">
<rect rx="6" ry="6" x="-28" y="-26" width="55" height="52" class="key"/>
<text x="0" y="0" class="key tap">LGUI</text>
<text x="0" y="24" class="key hold">Sticky</text>
</g>
<g transform="translate(637, 103) rotate(3.0)" class="key keypos-18">
<rect rx="6" ry="6" x="-28" y="-26" width="55" height="52" class="key"/>
<text x="0" y="0" class="key tap">RALT</text>
<text x="0" y="24" class="key hold">Sticky</text>
</g>
<g transform="translate(697, 150) rotate(8.0)" class="key keypos-19">
<rect rx="6" ry="6" x="-28" y="-26" width="55" height="52" class="key"/>
<text x="0" y="0" class="key tap">LCTRL</text>
<text x="0" y="24" class="key hold">Stikcy</text>
</g>
<g transform="translate(104, 161) rotate(-3.0)" class="key keypos-20">
<rect rx="6" ry="6" x="-28" y="-26" width="55" height="52" class="key"/>
<text x="0" y="0" class="key tap">6</text>
</g>
<g transform="translate(164, 143)" class="key keypos-21">
<rect rx="6" ry="6" x="-28" y="-26" width="55" height="52" class="key"/>
<text x="0" y="0" class="key tap">5</text>
</g>
<g transform="translate(225, 158)" class="key keypos-22">
<rect rx="6" ry="6" x="-28" y="-26" width="55" height="52" class="key"/>
<text x="0" y="0" class="key tap">4</text>
</g>
<g transform="translate(513, 158)" class="key keypos-23">
<rect rx="6" ry="6" x="-28" y="-26" width="55" height="52" class="key"/>
<text x="0" y="0" class="key tap">?</text>
</g>
<g transform="translate(574, 143)" class="key keypos-24">
<rect rx="6" ry="6" x="-28" y="-26" width="55" height="52" class="key"/>
<text x="0" y="0" class="key tap">!</text>
</g>
<g transform="translate(634, 161) rotate(3.0)" class="key keypos-25">
<rect rx="6" ry="6" x="-28" y="-26" width="55" height="52" class="key"/>
<text x="0" y="0" class="key tap">/</text>
</g>
<g transform="translate(241, 230)" class="key keypos-26">
<rect rx="6" ry="6" x="-28" y="-26" width="55" height="52" class="key"/>
<text x="0" y="0" class="key tap">Nav</text>
</g>
<g transform="translate(302, 245)" class="key keypos-27">
<rect rx="6" ry="6" x="-28" y="-26" width="55" height="52" class="key"/>
<text x="0" y="0" class="key tap">SPACE</text>
</g>
<g transform="translate(437, 245)" class="key keypos-28">
<rect rx="6" ry="6" x="-28" y="-26" width="55" height="52" class="key"/>
<text x="0" y="0" class="key tap">SHIFT</text>
</g>
<g transform="translate(498, 230)" class="key keypos-29">
<rect rx="6" ry="6" x="-28" y="-26" width="55" height="52" class="key"/>
<text x="0" y="0" class="key tap">Sym</text>
</g>
</g>
</g>
<text x="769.0" y="1042.0" class="footer">Created with <a href="https://github.com/caksoylar/keymap-drawer">keymap-drawer</a></text></svg>
